<svg xmlns="http://www.w3.org/2000/svg" viewBox="0 0 256 256">
  <rect width="256" height="256" fill="#F5F1E8"/>
  <path d="M128 80 Q140 95 145 110 Q150 95 155 85" fill="none" stroke="#0D3B2E" stroke-width="6" stroke-linecap="round" stroke-linejoin="round"/>
  <ellipse cx="135" cy="95" rx="8" ry="14" fill="#0D3B2E" transform="rotate(-25 135 95)"/>
  <ellipse cx="148" cy="100" rx="8" ry="14" fill="#C9A24C" transform="rotate(-15 148 100)"/>
  <ellipse cx="142" cy="115" rx="8" ry="14" fill="#0D3B2E" transform="rotate(15 142 115)"/>
  <ellipse cx="152" cy="125" rx="8" ry="14" fill="#0D3B2E" transform="rotate(25 152 125)"/>
  <ellipse cx="120" cy="100" rx="8" ry="14" fill="#0D3B2E" transform="rotate(-45 120 100)"/>
  <ellipse cx="125" cy="115" rx="8" ry="14" fill="#0D3B2E" transform="rotate(-20 125 115)"/>
  <ellipse cx="132" cy="130" rx="8" ry="14" fill="#0D3B2E" transform="rotate(5 132 130)"/>
  <ellipse cx="145" cy="140" rx="8" ry="14" fill="#0D3B2E" transform="rotate(20 145 140)"/>
  <path d="M145 110 Q145 155 145 175" fill="none" stroke="#0D3B2E" stroke-width="5" stroke-linecap="round"/>
</svg>